<svg xmlns="http://www.w3.org/2000/svg" viewBox="0 0 1200 800">
  <defs>
    <linearGradient id="bg" x1="0" y1="0" x2="1" y2="1">
      <stop offset="0" stop-color="#0f172a"/>
      <stop offset="1" stop-color="#1e3a8a"/>
    </linearGradient>
  </defs>
  <rect width="1200" height="800" fill="url(#bg)"/>
  <rect x="90" y="120" width="1020" height="560" rx="24" fill="#0b1224" stroke="#334155"/>
  <rect x="130" y="170" width="740" height="460" rx="12" fill="#111827"/>
  <g fill="#1f2937">
    <rect x="910" y="170" width="160" height="70" rx="8"/>
    <rect x="910" y="260" width="160" height="70" rx="8"/>
    <rect x="910" y="350" width="160" height="70" rx="8"/>
    <rect x="910" y="440" width="160" height="70" rx="8"/>
  </g>
  <g fill="#22d3ee" opacity=".9">
    <rect x="180" y="470" width="70" height="110" rx="6"/>
    <rect x="280" y="420" width="70" height="160" rx="6"/>
    <rect x="380" y="360" width="70" height="220" rx="6"/>
    <rect x="480" y="300" width="70" height="280" rx="6"/>
    <rect x="580" y="250" width="70" height="330" rx="6"/>
  </g>
  <path d="M170 520L300 455L420 400L520 330L640 270L760 240" fill="none" stroke="#93c5fd" stroke-width="10" stroke-linecap="round"/>
  <circle cx="760" cy="240" r="14" fill="#f8fafc"/>
</svg>
